<svg width="17" height="16" viewBox="0 0 17 16" fill="none" xmlns="http://www.w3.org/2000/svg">
<path d="M3.69751 13C4.84398 11.625 6.56983 10.75 8.50006 10.75C10.4303 10.75 12.1561 11.625 13.3026 13M15.75 8C15.75 12.0041 12.5041 15.25 8.5 15.25C4.49594 15.25 1.25 12.0041 1.25 8C1.25 3.99594 4.49594 0.75 8.5 0.75C12.5041 0.75 15.75 3.99594 15.75 8ZM10.75 6C10.75 7.24264 9.74264 8.25 8.5 8.25C7.25736 8.25 6.25 7.24264 6.25 6C6.25 4.75736 7.25736 3.75 8.5 3.75C9.74264 3.75 10.75 4.75736 10.75 6Z" stroke="#1577EA" stroke-width="1.5" stroke-linecap="round" stroke-linejoin="round"/>
</svg>
